<?xml version="1.0" encoding="UTF-8"?>
<svg viewBox="0 0 266.67 266.67" xmlns="http://www.w3.org/2000/svg">
 <defs>
  <linearGradient id="a" x1="-1.0122" x2=".20732" y1=".50781" y2=".70313">
   <stop stop-color="#fff" stop-opacity=".5" offset="0"/>
   <stop stop-color="#fff" stop-opacity=".25" offset="1"/>
  </linearGradient>
 </defs>
 <g fill-rule="evenodd">
  <path transform="rotate(-41.331 66.815 56.944)" d="m114.88 99.108l-62.311 18.631-48.07-42.164 14.242-60.794 62.312-18.631 48.069 42.164-14.242 60.794z" fill="#ffc62a" stroke="#ff9500" stroke-width="2.5"/>
  <path transform="rotate(-41.48 51.172 70.664)" d="m87.09 13.534s-58.762 15.235-58.762 17.955c0 2.7205-13.602 52.233-13.058 57.13 0 2.1764 39.719 39.174 44.616 39.174-19.043-44.615-29.381-99.025 27.205-114.26v-1.1e-5z" fill="url(#a)" stroke-width="1.25"/>
  <path transform="rotate(-41.331 161.57 113.78)" d="m209.64 155.94l-62.311 18.631-48.07-42.164 14.242-60.794 62.312-18.631 48.069 42.164-14.242 60.794z" fill="#ffc62a" stroke="#ff9500" stroke-width="2.5"/>
  <path transform="rotate(-41.48 145.41 129.99)" d="m181.33 72.863s-58.762 15.235-58.762 17.955c0 2.7205-13.602 52.233-13.058 57.13 0 2.1764 39.719 39.174 44.616 39.174-19.043-44.615-29.381-99.025 27.205-114.26v-8e-6z" fill="url(#a)" stroke-width="1.25"/>
  <path transform="rotate(-41.331 61.076 168.73)" d="m109.14 210.89l-62.312 18.631-48.07-42.164 14.242-60.794 62.312-18.631 48.069 42.163-14.242 60.795z" fill="#ffc62a" stroke="#ff9500" stroke-width="2.5"/>
  <path transform="rotate(-41.48 42.935 186.43)" d="m78.855 129.3s-58.762 15.235-58.762 17.955c0 2.7205-13.602 52.233-13.058 57.13 0 2.1764 39.719 39.174 44.616 39.174-19.043-44.615-29.381-99.025 27.205-114.26v-1.5e-5z" fill="url(#a)" stroke-width="1.25"/>
  <path transform="rotate(-41.331 167.51 1.4015)" d="m215.58 43.565l-62.311 18.631-48.07-42.164 14.243-60.794 62.311-18.631 48.069 42.164-14.242 60.794z" fill="#ffc62a" stroke="#ff9500" stroke-width="2.5"/>
  <path transform="rotate(-41.48 149.87 17.615)" d="m185.79-39.514s-58.762 15.235-58.762 17.955c0 2.7205-13.602 52.233-13.058 57.13 0 2.1764 39.719 39.174 44.616 39.174-19.043-44.615-29.381-99.025 27.205-114.26z" fill="url(#a)" stroke-width="1.25"/>
  <path transform="rotate(-41.331 155.14 226.15)" d="m203.2 268.32l-62.311 18.631-48.07-42.164 14.242-60.794 62.312-18.631 48.069 42.164-14.242 60.794z" fill="#ffc62a" stroke="#ff9500" stroke-width="2.5"/>
  <path transform="rotate(-41.48 136 241.38)" d="m171.92 184.25s-58.762 15.235-58.762 17.955c0 2.7205-13.602 52.233-13.058 57.13 0 2.1764 39.719 39.174 44.616 39.174-19.043-44.615-29.381-99.025 27.205-114.26v-1.5e-5z" fill="url(#a)" stroke-width="1.25"/>
  <path transform="rotate(-41.331 54.145 280.61)" d="m102.21 322.77l-62.311 18.631-48.07-42.164 14.242-60.794 62.312-18.631 48.069 42.164-14.242 60.794z" fill="#ffc62a" stroke="#ff9500" stroke-width="2.5"/>
  <path transform="rotate(-41.48 35.527 296.82)" d="m71.444 239.69s-58.762 15.235-58.762 17.955c0 2.7205-13.602 52.233-13.058 57.13 0 2.1764 39.719 39.174 44.616 39.174-19.043-44.615-29.381-99.025 27.205-114.26v-1.5e-5z" fill="url(#a)" stroke-width="1.25"/>
  <path transform="rotate(-41.331 262.56 57.837)" d="m310.63 100l-62.311 18.631-48.07-42.164 14.242-60.794 62.312-18.631 48.069 42.164-14.242 60.794z" fill="#ffc62a" stroke="#ff9500" stroke-width="2.5"/>
  <path transform="rotate(-41.48 247.39 72.07)" d="m283.31 14.942s-58.762 15.235-58.762 17.955c0 2.7205-13.602 52.233-13.058 57.13 0 2.1764 39.719 39.174 44.616 39.174-19.043-44.615-29.381-99.025 27.205-114.26v-1e-5z" fill="url(#a)" stroke-width="1.25"/>
  <path transform="rotate(-41.331 254.14 170.21)" d="m302.21 212.38l-62.311 18.631-48.07-42.164 14.242-60.794 62.312-18.631 48.069 42.164-14.242 60.794z" fill="#ffc62a" stroke="#ff9500" stroke-width="2.5"/>
  <path transform="rotate(-41.48 236.5 185.93)" d="m272.42 128.8s-58.762 15.235-58.762 17.955c0 2.7205-13.602 52.233-13.058 57.13 0 2.1764 39.719 39.174 44.616 39.174-19.043-44.615-29.381-99.025 27.205-114.26v-1.5e-5z" fill="url(#a)" stroke-width="1.25"/>
  <path transform="rotate(-41.331 250.18 282.1)" d="m298.25 324.26l-62.311 18.631-48.07-42.164 14.242-60.794 62.312-18.631 48.069 42.164-14.242 60.794z" fill="#ffc62a" stroke="#ff9500" stroke-width="2.5"/>
  <path transform="rotate(-41.48 232.54 297.81)" d="m268.46 240.68s-58.762 15.235-58.762 17.955c0 2.7205-13.602 52.233-13.058 57.13 0 2.1764 39.719 39.174 44.616 39.174-19.043-44.615-29.381-99.025 27.205-114.26v-1.5e-5z" fill="url(#a)" stroke-width="1.25"/>
  <path transform="rotate(-41.331 -39.92 224.17)" d="m8.1488 266.34l-62.311 18.631-48.07-42.164 14.242-60.794 62.312-18.631 48.069 42.164-14.242 60.794z" fill="#ffc62a" stroke="#ff9500" stroke-width="2.5"/>
  <path transform="rotate(-41.48 -58.062 239.39)" d="m-22.146 182.26s-58.762 15.235-58.762 17.955c0 2.7205-13.602 52.233-13.058 57.13 0 2.1764 39.719 39.174 44.616 39.174-19.043-44.615-29.381-99.025 27.205-114.26v-1.5e-5z" fill="url(#a)" stroke-width="1.25"/>
  <path transform="rotate(-41.331 -32.984 111.8)" d="m15.084 153.96l-62.311 18.631-48.07-42.164 14.242-60.794 62.312-18.631 48.069 42.164-14.242 60.794z" fill="#ffc62a" stroke="#ff9500" stroke-width="2.5"/>
  <path transform="rotate(-41.48 -50.63 127.52)" d="m-14.71 70.388s-58.762 15.235-58.762 17.955c0 2.7205-13.602 52.233-13.058 57.13 0 2.1764 39.719 39.174 44.616 39.174-19.043-44.615-29.381-99.025 27.205-114.26z" fill="url(#a)" stroke-width="1.25"/>
  <path transform="rotate(-41.331 -28.039 .41603)" d="m20.03 42.58l-62.311 18.631-48.07-42.164 14.242-60.794 62.312-18.631 48.069 42.164-14.242 60.794z" fill="#ffc62a" stroke="#ff9500" stroke-width="2.5"/>
  <path transform="rotate(-41.48 -46.184 15.637)" d="m-10.265-41.494s-58.762 15.235-58.762 17.955c0 2.7205-13.602 52.233-13.058 57.13 0 2.1764 39.719 39.174 44.616 39.174-19.043-44.615-29.381-99.025 27.205-114.26v-1.1e-5z" fill="url(#a)" stroke-width="1.25"/>
  <path transform="rotate(-41.331 72.333 -55.169)" d="m120.4-13.004l-62.311 18.631-48.07-42.164 14.242-60.794 62.312-18.631 48.069 42.164-14.242 60.794z" fill="#ffc62a" stroke="#ff9500" stroke-width="2.5"/>
  <path transform="rotate(-41.48 55.716 -39.362)" d="m91.635-96.492s-58.762 15.235-58.762 17.955c0 2.7205-13.602 52.233-13.058 57.13 0 2.1764 39.719 39.174 44.616 39.174-19.043-44.615-29.381-99.025 27.205-114.26v-8e-6z" fill="url(#a)" stroke-width="1.25"/>
  <g fill="#ffc62a" stroke="#ff9500" stroke-width="2.5">
   <path transform="rotate(-41.331 -139.67 280.33)" d="m-91.598 322.5l-62.311 18.631-48.07-42.164 14.242-60.794 62.312-18.631 48.069 42.163-14.242 60.794z"/>
   <path transform="rotate(-41.331 -132.67 168.33)" d="m-84.598 210.5l-62.311 18.631-48.07-42.164 14.242-60.794 62.312-18.631 48.069 42.164-14.242 60.794z"/>
   <path transform="rotate(-41.331 -128.67 56.331)" d="m-80.598 98.496l-62.311 18.631-48.07-42.164 14.242-60.794 62.312-18.631 48.069 42.164-14.242 60.794z"/>
   <path transform="rotate(-41.331 49.332 392.83)" d="m97.402 435l-62.311 18.631-48.07-42.164 14.242-60.794 62.312-18.631 48.069 42.164-14.242 60.794z"/>
   <path transform="rotate(-41.331 149.33 336.33)" d="m197.4 378.5l-62.311 18.631-48.07-42.164 14.242-60.794 62.312-18.631 48.069 42.164-14.242 60.794z"/>
   <path transform="rotate(-41.331 -45.168 336.33)" d="m2.9019 378.5l-62.311 18.631-48.07-42.164 14.242-60.794 62.312-18.631 48.069 42.164-14.242 60.794z"/>
  </g>
  <g fill="url(#a)" stroke-width="1.25">
   <path transform="rotate(-41.48 -146.78 72.138)" d="m-110.86 15.008s-58.762 15.235-58.762 17.955c0 2.7205-13.602 52.233-13.058 57.13 0 2.1764 39.719 39.174 44.616 39.174-19.043-44.615-29.381-99.025 27.205-114.26v-1.5e-5z"/>
   <path transform="rotate(-41.48 30.716 409.14)" d="m66.635 352.01s-58.762 15.235-58.762 17.955c0 2.7205-13.602 52.233-13.058 57.13 0 2.1764 39.719 39.174 44.616 39.174-19.043-44.615-29.381-99.025 27.205-114.26v-3.1e-5z"/>
   <path transform="rotate(-41.48 129.72 352.14)" d="m165.64 295.01s-58.762 15.235-58.762 17.955c0 2.7205-13.602 52.233-13.058 57.13 0 2.1764 39.719 39.174 44.616 39.174-19.043-44.615-29.381-99.025 27.205-114.26v-3.1e-5z"/>
   <path transform="rotate(-41.48 -63.784 351.14)" d="m-27.865 294.01s-58.762 15.235-58.762 17.955c0 2.7205-13.602 52.233-13.058 57.13 0 2.1764 39.719 39.174 44.616 39.174-19.043-44.615-29.381-99.025 27.205-114.26v-3.1e-5z"/>
   <path transform="rotate(-41.48 -157.78 295.14)" d="m-121.86 238.01s-58.762 15.235-58.762 17.955c0 2.7205-13.602 52.233-13.058 57.13 0 2.1764 39.719 39.174 44.616 39.174-19.043-44.615-29.381-99.025 27.205-114.26v-1.5e-5z"/>
   <path transform="rotate(-41.48 -150.28 184.64)" d="m-114.36 127.51s-58.762 15.235-58.762 17.955c0 2.7205-13.602 52.233-13.058 57.13 0 2.1764 39.719 39.174 44.616 39.174-19.043-44.615-29.381-99.025 27.205-114.26v-1.5e-5z"/>
  </g>
 </g>
</svg>
